{
	"asset":{
		"generator":"Khronos glTF Blender I/O v4.4.56",
		"version":"2.0"
	},
	"scene":0,
	"scenes":[
		{
			"name":"Scene",
			"nodes":[
				0
			]
		}
	],
	"nodes":[
		{
			"mesh":0,
			"name":"\u5e73\u9762",
			"scale":[
				4.174170017242432,
				4.174170017242432,
				4.174170017242432
			],
			"translation":[
				0,
				-0.05628029257059097,
				0
			]
		}
	],
	"materials":[
		{
			"doubleSided":true,
			"name":"\u6750\u8d28.\u5e73\u9762",
			"pbrMetallicRoughness":{
				"metallicFactor":0,
				"roughnessFactor":0.7318181991577148
			}
		}
	],
	"meshes":[
		{
			"name":"\u5e73\u9762",
			"primitives":[
				{
					"attributes":{
						"POSITION":0,
						"NORMAL":1,
						"TEXCOORD_0":2
					},
					"indices":3,
					"material":0
				}
			]
		}
	],
	"accessors":[
		{
			"bufferView":0,
			"componentType":5126,
			"count":2704,
			"max":[
				0.9941590428352356,
				0.1541149765253067,
				0.9995863437652588
			],
			"min":[
				-0.9942514896392822,
				-0.0036820925306528807,
				-0.9959997534751892
			],
			"type":"VEC3"
		},
		{
			"bufferView":1,
			"componentType":5126,
			"count":2704,
			"type":"VEC3"
		},
		{
			"bufferView":2,
			"componentType":5126,
			"count":2704,
			"type":"VEC2"
		},
		{
			"bufferView":3,
			"componentType":5123,
			"count":15606,
			"type":"SCALAR"
		}
	],
	"bufferViews":[
		{
			"buffer":0,
			"byteLength":32448,
			"byteOffset":0,
			"target":34962
		},
		{
			"buffer":0,
			"byteLength":32448,
			"byteOffset":32448,
			"target":34962
		},
		{
			"buffer":0,
			"byteLength":21632,
			"byteOffset":64896,
			"target":34962
		},
		{
			"buffer":0,
			"byteLength":31212,
			"byteOffset":86528,
			"target":34963
		}
	],
	"buffers":[
		{
			"byteLength":117740,
			"uri":"sand.bin"
		}
	]
}
